<svg xmlns="http://www.w3.org/2000/svg" xmlns:xlink="http://www.w3.org/1999/xlink" width="139" height="25" viewBox="0 0 139 25">
    <defs>
        <path id="a" d="M.117.04h37.078v17.988H.117z"/>
    </defs>
    <g fill="none" fill-rule="evenodd">
        <path fill="#FF7D08" d="M83.876.217v8.731a4.834 4.834 0 0 0-1.667-1.37 5.489 5.489 0 0 0-2.461-.595c-.902 0-1.73.162-2.466.48a5.655 5.655 0 0 0-1.888 1.318 5.993 5.993 0 0 0-1.217 1.972 6.832 6.832 0 0 0-.433 2.444c0 .868.146 1.69.433 2.444a5.99 5.99 0 0 0 1.217 1.973c.52.555 1.156.998 1.888 1.316.734.319 1.563.48 2.466.48.84 0 1.669-.195 2.46-.581a4.805 4.805 0 0 0 1.668-1.342v1.63h1.995V.216h-1.995zm-.12 14.74a4.232 4.232 0 0 1-.864 1.399 4.04 4.04 0 0 1-2.976 1.268c-.646 0-1.229-.115-1.733-.34a3.63 3.63 0 0 1-1.274-.934 4.22 4.22 0 0 1-.795-1.411 5.39 5.39 0 0 1-.279-1.742c0-.614.094-1.2.279-1.742a4.225 4.225 0 0 1 .795-1.41 3.753 3.753 0 0 1 1.276-.947c.502-.234 1.085-.352 1.73-.352.598 0 1.156.115 1.662.34a4 4 0 0 1 1.313.939c.368.397.66.872.866 1.412.208.539.313 1.132.313 1.76a4.87 4.87 0 0 1-.313 1.76zM137.41 19.264c-.436 0-.797-.157-1.071-.465a1.521 1.521 0 0 1-.408-1.042c0-.388.137-.74.408-1.042.274-.308.634-.464 1.071-.464.436 0 .796.156 1.071.464.27.303.408.654.408 1.042 0 .389-.138.739-.408 1.042a1.376 1.376 0 0 1-1.07.465M115.914 19.264a4.3 4.3 0 0 1-1.004-.128c-.36-.087-.699-.255-1.007-.5a2.73 2.73 0 0 1-.761-.996c-.196-.415-.295-.96-.295-1.623V9.04h-2.334V7.277h2.334V4.042h1.996v3.235h3.176V9.04h-3.176v6.51c0 .408.038.745.112 1.004.07.246.173.439.304.571a1 1 0 0 0 .461.272c.372.102.81.115 1.293-.013a3.37 3.37 0 0 0 .674-.256l.245-.125.093 1.857-.12.048c-.296.117-.61.207-.936.267a5.89 5.89 0 0 1-1.055.089M131.444 19.117h1.994V.217h-1.994zM106.528 19.117h1.995V7.277h-1.995zM88.106 19.117H90.1V7.277h-1.994z"/>
        <g transform="translate(92.13 6.944)">
            <mask id="b" fill="#fff">
                <use xlink:href="#a"/>
            </mask>
            <path fill="#FF7D08" d="M37.152 11.954a9.748 9.748 0 0 1-.14-1.179 19.978 19.978 0 0 1-.049-1.36V4.39c0-.725-.119-1.368-.352-1.912a3.7 3.7 0 0 0-.987-1.365 4.233 4.233 0 0 0-1.457-.806 5.707 5.707 0 0 0-1.764-.267c-.98 0-1.872.161-2.653.48-.781.318-1.421.727-1.901 1.216l-.117.119 1.146 1.383.138-.14a4.32 4.32 0 0 1 1.41-.941 4.594 4.594 0 0 1 1.809-.354c.928 0 1.64.229 2.116.68.474.45.713 1.15.713 2.082v.183c-.96.004-1.903.041-2.807.11-.965.075-1.835.244-2.582.502-.766.264-1.386.67-1.847 1.21-.468.547-.706 1.295-.706 2.222 0 .67.134 1.246.397 1.714.26.463.593.846.989 1.14.393.29.834.503 1.311.63.471.127.936.191 1.381.191.939 0 1.756-.176 2.428-.522.563-.29 1.081-.741 1.545-1.342a11.976 11.976 0 0 0 .16 1.42l.025.15h1.837l-.043-.218zM35.064 7.11c0 .483-.077.949-.23 1.385a3.53 3.53 0 0 1-.663 1.154c-.287.33-.646.595-1.07.788-.424.193-.917.29-1.468.29-.305 0-.612-.035-.91-.105a2.415 2.415 0 0 1-.796-.342 1.725 1.725 0 0 1-.556-.612c-.136-.248-.206-.564-.206-.94 0-.49.154-.871.471-1.165.331-.307.765-.545 1.292-.708a8.553 8.553 0 0 1 1.816-.336 24.265 24.265 0 0 1 2.019-.085h.301v.676zM10.25.333v1.659A4.682 4.682 0 0 0 8.606.646 5.542 5.542 0 0 0 6.12.039C5.22.04 4.39.2 3.656.52a5.668 5.668 0 0 0-1.89 1.317A6.057 6.057 0 0 0 .55 3.782a6.499 6.499 0 0 0-.433 2.373c0 .852.146 1.658.433 2.395a5.625 5.625 0 0 0 1.22 1.913c.519.53 1.155.952 1.888 1.254.732.302 1.561.455 2.462.455.842 0 1.682-.204 2.497-.606a4.603 4.603 0 0 0 1.633-1.32v1.645c0 .6-.08 1.172-.234 1.701-.152.52-.395.98-.722 1.368-.325.384-.76.693-1.293.918-.538.227-1.202.342-1.976.342-.833 0-1.636-.2-2.386-.592-.751-.396-1.351-.882-1.781-1.446l-.129-.168L.29 15.57l.118.124a7.4 7.4 0 0 0 2.49 1.734 7.66 7.66 0 0 0 3.054.628c1.274 0 2.33-.205 3.137-.607.806-.404 1.455-.915 1.926-1.521a5.239 5.239 0 0 0 .972-2.008 8.76 8.76 0 0 0 .258-2.029V.333H10.25zm-.12 7.53a4.017 4.017 0 0 1-.863 1.35 3.796 3.796 0 0 1-1.311.866 4.453 4.453 0 0 1-1.668.306c-.645 0-1.228-.115-1.732-.34A3.68 3.68 0 0 1 3.28 9.12a4.15 4.15 0 0 1-.795-1.362 4.9 4.9 0 0 1-.278-1.653 4.9 4.9 0 0 1 .278-1.654c.184-.515.451-.973.795-1.362a3.83 3.83 0 0 1 1.277-.937c.503-.233 1.085-.351 1.73-.351a3.91 3.91 0 0 1 1.66.351c.506.235.95.55 1.317.941a4.388 4.388 0 0 1 1.177 3.012c0 .644-.105 1.236-.312 1.758z" mask="url(#b)"/>
        </g>
        <path fill="#FF7D08" d="M107.526 4.406c-.333 0-.64-.127-.914-.377a1.278 1.278 0 0 1-.42-.982c0-.395.14-.726.42-.981.273-.25.58-.378.914-.378.333 0 .64.127.914.378.279.255.42.586.42.981 0 .396-.141.727-.42.982-.274.25-.581.377-.914.377M89.103 4.406c-.333 0-.64-.127-.914-.377a1.279 1.279 0 0 1-.42-.982c0-.395.141-.726.42-.981.274-.25.58-.378.914-.378.334 0 .641.127.915.378.278.255.42.586.42.981 0 .396-.142.727-.42.982-.274.25-.581.377-.915.377"/>
        <path fill="#1F3357" d="M.338 19.117h1.994V7.277H.338zM2.248 2.066c-.273-.251-.58-.378-.913-.378-.334 0-.641.127-.915.378a1.28 1.28 0 0 0-.42.981c0 .396.142.727.42.982.274.25.581.377.915.377.333 0 .64-.127.913-.377.279-.255.42-.586.42-.982a1.28 1.28 0 0 0-.42-.981M10.14 6.983c-.83 0-1.63.219-2.375.65A4.109 4.109 0 0 0 6.41 8.854a41.8 41.8 0 0 0-.014-.374c-.017-.38-.04-.73-.073-1.04l-.017-.164h-1.92l.016.198a37.817 37.817 0 0 1 .096 2.51v9.131h1.994V13.05c0-.744.094-1.396.28-1.938.183-.539.43-.989.734-1.337.3-.345.648-.606 1.032-.775a2.955 2.955 0 0 1 1.193-.254c.563 0 1.035.092 1.4.275.363.181.656.437.87.76.218.33.375.733.467 1.196.093.479.14 1.02.14 1.607v6.532h1.995v-7.218c0-1.46-.375-2.654-1.113-3.55-.747-.905-1.873-1.365-3.35-1.365M21.157 16.725l-3.559-9.448H15.38l4.743 11.84h2.047l4.717-11.84h-2.145l-3.584 9.448M37.173 8.724a5.02 5.02 0 0 0-1.747-1.271c-.694-.312-1.504-.47-2.407-.47-.822 0-1.6.158-2.309.469-.71.312-1.336.75-1.862 1.303a6.047 6.047 0 0 0-1.242 1.971 6.73 6.73 0 0 0-.446 2.47c0 .889.155 1.72.46 2.473a6.183 6.183 0 0 0 1.252 1.97 5.63 5.63 0 0 0 1.901 1.304c.733.31 1.537.467 2.391.467.952 0 1.855-.195 2.686-.58.831-.386 1.603-1.03 2.292-1.916l.112-.143-1.527-1.22-.105.173c-.305.497-.76.945-1.352 1.328-.586.38-1.294.572-2.106.572a3.77 3.77 0 0 1-1.54-.316 3.918 3.918 0 0 1-2.073-2.122 4.359 4.359 0 0 1-.315-1.365h9.311l.018-.163c.016-.153.024-.3.024-.436v-.368c0-.8-.12-1.563-.358-2.266a5.494 5.494 0 0 0-1.058-1.864m-7.904 3.408c.046-.396.156-.782.326-1.15.199-.426.47-.813.806-1.148a3.848 3.848 0 0 1 1.173-.796c.44-.194.927-.292 1.445-.292 1.114 0 1.98.339 2.576 1.007.564.633.888 1.433.964 2.379h-7.29M57.121 17.128c-.213.109-.44.195-.674.256a2.48 2.48 0 0 1-1.293.013c-.179-.049-.33-.138-.461-.272-.131-.133-.233-.325-.304-.571-.075-.26-.114-.596-.114-1.004V9.04h3.178V7.278h-3.178V4.042h-1.994v3.236h-2.334V9.04h2.334v6.977c0 .662.1 1.208.294 1.623.196.416.452.752.762.997.308.244.647.412 1.007.5.35.084.689.127 1.004.127.376 0 .731-.03 1.055-.09.326-.06.64-.149.936-.266l.12-.048-.093-1.857-.245.125M61.285 2.066c-.273-.251-.58-.378-.915-.378-.332 0-.64.127-.913.378-.28.256-.42.586-.42.981 0 .396.14.727.42.982.274.25.581.377.913.377.334 0 .64-.127.915-.377.279-.255.42-.586.42-.982 0-.395-.141-.725-.42-.981M59.374 19.117h1.994V7.277h-1.994z"/>
        <path fill="#FF7D08" d="M71.158 13.387c-.307-.257-.697-.485-1.162-.685l-1.88 1.367c.54.168.985.345 1.33.528.51.271.758.663.758 1.199 0 .342-.065.629-.193.853a1.69 1.69 0 0 1-.522.564c-.22.15-.482.256-.778.316a4.876 4.876 0 0 1-.975.095 3.326 3.326 0 0 1-1.761-.489 3.603 3.603 0 0 1-.947-.823l-1.589 1.154a4.742 4.742 0 0 0 1.769 1.39c.821.368 1.68.555 2.551.555.526 0 1.054-.064 1.57-.19a4.089 4.089 0 0 0 1.421-.64c.421-.3.767-.691 1.028-1.163.263-.476.396-1.062.396-1.744 0-.952-.342-1.721-1.016-2.287"/>
        <path fill="#1F3357" d="M64.838 12.89c.266.197.558.347.862.468l1.866-1.356c-.62-.164-1.097-.352-1.418-.564-.382-.252-.568-.607-.568-1.085 0-.275.06-.515.179-.714a1.53 1.53 0 0 1 .485-.505c.204-.134.444-.233.712-.294a3.74 3.74 0 0 1 .827-.094c.59 0 1.12.144 1.58.427.38.234.676.53.897.872l1.552-1.127a3.94 3.94 0 0 0-1.593-1.377 5.37 5.37 0 0 0-2.363-.557c-.525 0-1.043.067-1.54.202-.5.137-.952.348-1.343.627-.398.286-.72.653-.957 1.092-.238.441-.359.978-.359 1.595 0 .57.114 1.056.338 1.442.22.38.505.7.843.949M47.89 13.387c-.654-.547-1.671-.968-3.026-1.25-.904-.192-1.571-.426-1.984-.699-.382-.252-.568-.607-.568-1.085 0-.275.06-.515.178-.714a1.54 1.54 0 0 1 .485-.505c.205-.134.445-.233.712-.294.276-.063.554-.094.828-.094.59 0 1.12.144 1.58.427.38.234.676.53.896.872l1.553-1.127a3.945 3.945 0 0 0-1.593-1.377 5.368 5.368 0 0 0-2.364-.557c-.525 0-1.042.067-1.538.202-.501.137-.953.348-1.344.627-.399.286-.72.653-.957 1.092-.238.441-.359.978-.359 1.595 0 .57.113 1.056.338 1.442.22.38.504.7.843.949.335.248.704.438 1.098.566.382.124.747.229 1.083.31 1.055.257 1.872.536 2.426.83.51.271.758.663.758 1.199 0 .342-.065.629-.192.853-.13.227-.305.417-.522.564-.221.15-.482.256-.778.316a4.87 4.87 0 0 1-.976.095 3.33 3.33 0 0 1-1.761-.489 3.6 3.6 0 0 1-.946-.823l-1.589 1.154a4.742 4.742 0 0 0 1.769 1.39c.821.368 1.68.555 2.552.555.525 0 1.053-.064 1.569-.19a4.087 4.087 0 0 0 1.42-.64c.422-.3.768-.691 1.029-1.163.263-.476.396-1.062.396-1.744 0-.952-.342-1.721-1.016-2.287"/>
    </g>
</svg>
